<?xml version="1.0" encoding="UTF-8"?>
<svg id="Livello_1" xmlns="http://www.w3.org/2000/svg" version="1.1" viewBox="0 0 256 211.66">
  <defs>
    <style>
      .st0 {
        fill: #ff7238;
      }
    </style>
  </defs>
  <g id="Layer_85">
    <path class="st0" d="M254.32,107.67c-2.26-3.03-56.89-73.79-126.29-73.79-6.59.01-13.16.64-19.63,1.88-4.65.77-7.8,5.17-7.02,9.82s5.17,7.8,9.82,7.02c.12-.02.24-.04.36-.07,5.43-1.04,10.95-1.56,16.47-1.58,50.79,0,94.88,46.18,108.45,61.88-8.74,10.11-18.32,19.46-28.64,27.95-3.65,2.98-4.2,8.35-1.23,12.01s8.35,4.2,12.01,1.23c.02-.02.04-.03.06-.05,13.12-10.7,25.06-22.76,35.64-35.98,2.28-3.03,2.22-7.25,0-10.33Z"/>
    <path class="st0" d="M198.02,156.75l-37.56-37.56-38.8-38.8-33.38-33.38L43.74,2.47c-3.37-3.32-8.8-3.29-12.12.09-3.32,3.37-3.29,8.8.09,12.12h0l36.23,36.23C42.53,65.54,20.07,84.79,1.74,107.67c-2.32,3.05-2.32,7.28,0,10.33,2.26,3.03,56.89,73.79,126.29,73.79,22.11-.51,43.71-6.82,62.61-18.31l35.55,35.68c3.34,3.34,8.74,3.34,12.08,0s3.34-8.74,0-12.08h0l-40.25-40.33ZM114.46,97.3l29.15,29.15c-7.52,8.58-20.57,9.44-29.15,1.92-8.58-7.52-9.44-20.57-1.92-29.15.6-.68,1.24-1.32,1.92-1.92ZM128.03,174.72c-50.79,0-94.88-46.18-108.45-61.88,17.11-20.09,37.77-36.86,60.95-49.47l21.89,21.85c-15.48,13.92-16.74,37.75-2.82,53.22,13.92,15.48,37.75,16.74,53.22,2.82.99-.89,1.93-1.83,2.82-2.82l22.49,22.49c-15.31,8.65-32.52,13.39-50.11,13.79Z"/>
  </g>
</svg>
