<?xml version="1.0" encoding="UTF-8"?>
<svg id="Livello_1" xmlns="http://www.w3.org/2000/svg" version="1.1" viewBox="0 0 256 211.66">
  <!-- Generator: Adobe Illustrator 29.8.1, SVG Export Plug-In . SVG Version: 2.1.1 Build 2)  -->
  <defs>
    <style>
      .st0 {
        fill: #ff7238;
      }
    </style>
  </defs>
  <path class="st0" d="M128.19,191.78c-29,0-60.06-12.84-89.82-37.14C16.27,136.59,2.66,118.71,2.09,117.95c-2.29-3.03-2.29-7.22,0-10.25.57-.75,14.18-18.63,36.28-36.68,29.76-24.3,60.81-37.14,89.82-37.14s60.06,12.84,89.82,37.14c22.11,18.05,35.71,35.93,36.28,36.68,2.29,3.03,2.29,7.22,0,10.25-.57.75-14.18,18.63-36.28,36.68-29.76,24.3-60.81,37.14-89.82,37.14h0ZM19.85,112.83c5.42,6.34,15.8,17.68,29.58,28.89,18.54,15.08,47.25,33.06,78.76,33.06s60.22-17.98,78.76-33.06c13.77-11.2,24.16-22.54,29.58-28.89-5.42-6.34-15.81-17.68-29.58-28.89-18.54-15.08-47.25-33.06-78.76-33.06s-60.22,17.98-78.76,33.06c-13.77,11.2-24.16,22.54-29.58,28.89Z"/>
  <path class="st0" d="M128.19,151.33c-21.23,0-38.5-17.27-38.5-38.5s17.27-38.5,38.5-38.5,38.5,17.27,38.5,38.5-17.27,38.5-38.5,38.5ZM128.19,92.33c-11.3,0-20.5,9.2-20.5,20.5s9.2,20.5,20.5,20.5,20.5-9.2,20.5-20.5-9.2-20.5-20.5-20.5Z"/>
</svg>