<?xml version="1.0" encoding="UTF-8"?>
<svg id="Livello_1" xmlns="http://www.w3.org/2000/svg" version="1.1" viewBox="0 0 256 256">
  <!-- Generator: Adobe Illustrator 29.7.1, SVG Export Plug-In . SVG Version: 2.1.1 Build 8)  -->
  <defs>
    <style>
      .st0 {
        fill: #ff7238;
      }
    </style>
  </defs>
  <path class="st0" d="M243.2,140.8H12.8c-7.07,0-12.8-5.73-12.8-12.8s5.73-12.8,12.8-12.8h230.4c7.07,0,12.8,5.73,12.8,12.8s-5.73,12.8-12.8,12.8Z"/>
  <path class="st0" d="M243.2,64H12.8c-7.07,0-12.8-5.73-12.8-12.8s5.73-12.8,12.8-12.8h230.4c7.07,0,12.8,5.73,12.8,12.8s-5.73,12.8-12.8,12.8Z"/>
  <path class="st0" d="M243.2,217.6H12.8c-7.07,0-12.8-5.73-12.8-12.8s5.73-12.8,12.8-12.8h230.4c7.07,0,12.8,5.73,12.8,12.8s-5.73,12.8-12.8,12.8Z"/>
</svg>