<svg version="1.2" xmlns="http://www.w3.org/2000/svg" viewBox="0 0 256 256" width="256" height="256">
	<style>
		.s0 { fill: #000000 } 
	</style>
	<path class="s0" d="m243.2 140.8h-230.4c-7.07 0-12.8-5.73-12.8-12.8 0-7.07 5.73-12.8 12.8-12.8h230.4c7.07 0 12.8 5.73 12.8 12.8 0 7.07-5.73 12.8-12.8 12.8z"/>
	<path class="s0" d="m243.2 64h-230.4c-7.07 0-12.8-5.73-12.8-12.8 0-7.07 5.73-12.8 12.8-12.8h230.4c7.07 0 12.8 5.73 12.8 12.8 0 7.07-5.73 12.8-12.8 12.8z"/>
	<path class="s0" d="m243.2 217.6h-230.4c-7.07 0-12.8-5.73-12.8-12.8 0-7.07 5.73-12.8 12.8-12.8h230.4c7.07 0 12.8 5.73 12.8 12.8 0 7.07-5.73 12.8-12.8 12.8z"/>
</svg>